<svg version="1.2" xmlns="http://www.w3.org/2000/svg" viewBox="0 0 46 49" width="46" height="49">
	<title>job-matching-logo-svg</title>
	<style>
		.s0 { fill: #333333 } 
		.s1 { fill: #ffee00 } 
		.s2 { fill: #002581 } 
	</style>
	<g id="그룹_693">
		<g id="logo">
			<g id="그룹_673">
				<path id="패스_597" class="s0" d="m59.1 8.9q0-0.1 0-0.2 0-0.2-0.1-0.3 0-0.1-0.1-0.2-0.1-0.1-0.2-0.2-0.2-0.1-0.4-0.2-0.1-0.1-0.3-0.1-0.2-0.1-0.4-0.2-0.2-0.1-0.4-0.2-0.2 0-0.4-0.1-0.2 0-0.4-0.1-0.2-0.1-0.4-0.2-0.2-0.1-0.4-0.3-0.2-0.1-0.3-0.2-0.2-0.2-0.2-0.4-0.1-0.2-0.2-0.4 0-0.2 0-0.4 0-0.2 0-0.4 0.1-0.1 0.2-0.3 0.1-0.2 0.2-0.3 0.1-0.2 0.3-0.3 0.2-0.1 0.4-0.2 0.2-0.1 0.4-0.2 0.2 0 0.5 0 0.2-0.1 0.4-0.1 0.2 0 0.3 0 0.2 0.1 0.4 0.1 0.1 0 0.3 0.1 0.1 0.1 0.3 0.1 0.1 0.1 0.3 0.2 0.1 0 0.2 0.1 0.1 0.2 0.2 0.3 0.1 0.1 0.2 0.2 0.1 0.2 0.1 0.3 0.1 0.1 0.1 0.3 0.1 0.1 0.1 0.2 0 0.2 0 0.3h-0.6q0-0.1 0-0.3-0.1-0.2-0.1-0.3-0.1-0.2-0.2-0.3-0.1-0.2-0.2-0.3-0.2-0.1-0.3-0.2-0.2-0.1-0.4-0.2-0.2 0-0.4-0.1-0.2 0-0.4 0-0.2 0-0.3 0-0.2 0.1-0.4 0.1-0.2 0.1-0.3 0.1-0.2 0.1-0.3 0.2-0.1 0.1-0.2 0.2-0.1 0.1-0.2 0.3 0 0.1-0.1 0.2 0 0.2 0 0.3 0 0.2 0 0.3 0 0.1 0.1 0.2 0 0.2 0.1 0.3 0.1 0.1 0.2 0.1 0.2 0.1 0.3 0.2 0.2 0.1 0.4 0.2 0.2 0 0.3 0.1 0.2 0.1 0.4 0.1c0.6 0.2 1.1 0.4 1.5 0.5q0.1 0.1 0.2 0.2 0.1 0 0.2 0.1 0.1 0.1 0.2 0.2 0 0.1 0.1 0.2 0 0.1 0.1 0.2 0 0.2 0 0.3 0.1 0.1 0.1 0.2 0 0.1 0 0.2 0 0.2 0 0.4-0.1 0.2-0.2 0.4-0.1 0.2-0.2 0.3-0.1 0.1-0.3 0.2-0.4 0.2-0.8 0.4-0.4 0.1-0.8 0.1-0.4 0-0.8 0-0.4-0.1-0.8-0.3-0.1 0-0.3-0.1-0.1-0.1-0.3-0.2-0.1-0.1-0.2-0.2-0.1-0.1-0.2-0.3-0.1-0.1-0.1-0.2-0.1-0.2-0.1-0.3-0.1-0.1-0.1-0.3 0-0.1 0-0.3h0.8q0 0.2 0 0.4 0.1 0.1 0.1 0.3 0.1 0.2 0.2 0.3 0.2 0.1 0.3 0.2 0.2 0.1 0.3 0.2 0.2 0.1 0.4 0.2 0.2 0 0.4 0 0.2 0 0.4 0 0.2 0 0.3 0 0.2 0 0.4 0 0.2-0.1 0.3-0.2 0.2-0.1 0.3-0.2c0.4-0.1 0.5-0.4 0.5-0.8z"/>
				<path id="패스_598" class="s0" d="m61.8 4v1.4h1.1v0.5h-1.1v3.5q0 0.1 0 0.2 0 0.1 0.1 0.2 0 0.1 0 0.2 0.1 0 0.1 0.1c0.1 0.2 0.3 0.2 0.5 0.2h0.5v0.5q-0.1 0.1-0.1 0.1-0.1 0-0.2 0-0.1 0-0.1 0-0.1 0-0.2 0-0.1 0-0.2 0-0.2 0-0.3 0-0.1-0.1-0.2-0.1-0.1-0.1-0.2-0.2-0.1-0.1-0.1-0.2-0.1-0.1-0.1-0.2-0.1-0.2-0.1-0.3 0-0.1 0-0.3v-3.8h-1v-0.5h1v-1.3z"/>
				<path id="패스_599" class="s0" d="m67.5 9.9q-0.1 0.2-0.3 0.4-0.2 0.1-0.5 0.2-0.2 0.1-0.4 0.2-0.3 0-0.5 0-0.2 0-0.4 0-0.1 0-0.3-0.1-0.2 0-0.3-0.1-0.2-0.1-0.3-0.3-0.1-0.1-0.2-0.3-0.1-0.2-0.1-0.4-0.1-0.2-0.1-0.4 0-0.2 0-0.4v-3.4h0.6v3.4q0 1.5 1.2 1.5 0.3 0.1 0.5 0 0.3 0 0.5-0.2 0.2-0.1 0.4-0.3 0.1-0.2 0.2-0.5v-3.9h0.6v5.3h-0.6z"/>
				<path id="패스_600" fill-rule="evenodd" class="s0" d="m69.4 7.9q0-0.2 0-0.5 0.1-0.3 0.1-0.5 0.1-0.3 0.2-0.5 0.1-0.2 0.2-0.5 0.3-0.3 0.7-0.5 0.4-0.2 0.9-0.2 0.4 0 0.8 0.3 0.4 0.2 0.7 0.5v-3h0.6v7.6h-0.5v-0.7q-0.1 0.2-0.3 0.4-0.2 0.1-0.5 0.2-0.2 0.1-0.4 0.2-0.3 0-0.5 0-0.2 0-0.4 0-0.2 0-0.4-0.1-0.2-0.1-0.4-0.3-0.2-0.1-0.3-0.3-0.1-0.2-0.3-0.5-0.1-0.2-0.1-0.5-0.1-0.2-0.1-0.5 0-0.3 0-0.6zm0.5 0.1q0 0.2 0 0.4 0 0.3 0.1 0.5 0 0.2 0.1 0.4 0.1 0.2 0.2 0.3 0.1 0.2 0.2 0.3 0.1 0.1 0.3 0.2 0.1 0 0.3 0.1 0.1 0 0.3 0 0.2 0 0.5 0 0.2-0.1 0.4-0.2 0.2-0.2 0.4-0.3 0.1-0.2 0.2-0.5v-2.4q-0.1-0.2-0.2-0.4-0.2-0.2-0.4-0.3-0.2-0.2-0.4-0.2-0.3-0.1-0.5-0.1-0.2 0-0.3 0.1-0.2 0-0.3 0.1-0.2 0-0.3 0.2-0.1 0.1-0.2 0.2-0.1 0.2-0.2 0.4-0.1 0.2-0.1 0.4-0.1 0.2-0.1 0.4 0 0.2 0 0.4z"/>
				<path id="패스_601" class="s0" d="m76.8 9.8l1.5-4.4h0.6l-2.3 6.2-0.1 0.3q-0.1 0.2-0.2 0.4-0.1 0.2-0.3 0.3-0.2 0.2-0.4 0.2-0.2 0.1-0.4 0.1-0.1 0-0.1 0-0.1 0-0.1 0-0.1 0-0.1 0-0.1 0-0.1-0.1v-0.5h0.3q0.1 0 0.2 0 0.1 0 0.2 0 0.1-0.1 0.1-0.1 0.1 0 0.2-0.1c0.2-0.1 0.3-0.4 0.5-0.7l0.2-0.8-2-5.2h0.7z"/>
				<path id="패스_602" fill-rule="evenodd" class="s0" d="m83.5 6.7q-0.1-0.1-0.2-0.2-0.1-0.1-0.2-0.2 0-0.1-0.1-0.2-0.1-0.1-0.1-0.3 0-0.1-0.1-0.2 0-0.1 0-0.2-0.1-0.1-0.1-0.2 0-0.1 0-0.2 0-0.1 0-0.3 0-0.2 0.1-0.3 0-0.2 0.1-0.3 0.1-0.1 0.2-0.3 0.1-0.1 0.3-0.2 0.1 0 0.3-0.1 0.1 0 0.3-0.1 0.1 0 0.3 0 0.2 0 0.3 0 0.2 0.1 0.3 0.1 0.1 0.1 0.3 0.1 0.1 0.1 0.2 0.2 0.1 0.1 0.2 0.2 0.1 0.2 0.1 0.3 0.1 0.1 0.1 0.3 0 0.1 0 0.2 0 0.2-0.1 0.4-0.1 0.2-0.2 0.4-0.1 0.2-0.2 0.3-0.1 0.2-0.3 0.3l-0.8 0.6 2 2.3q0.1-0.2 0.2-0.3 0.1-0.2 0.1-0.4 0.1-0.2 0.1-0.5 0-0.2 0-0.4h0.6q0 0.3 0 0.6-0.1 0.2-0.1 0.5-0.1 0.2-0.2 0.5-0.1 0.2-0.3 0.4l1 1.1h-0.7l-0.6-0.7q-0.1 0.1-0.2 0.2-0.1 0.1-0.2 0.2-0.1 0.1-0.3 0.1-0.1 0.1-0.2 0.1-0.1 0.1-0.3 0.1-0.1 0-0.2 0.1-0.2 0-0.3 0-0.2 0-0.3 0-0.2 0-0.4 0-0.2 0-0.4-0.1-0.2 0-0.4-0.1-0.2-0.1-0.4-0.3-0.2-0.1-0.3-0.3-0.1-0.1-0.2-0.3 0-0.2-0.1-0.4 0-0.2 0-0.4 0-0.1 0-0.2 0-0.2 0.1-0.3 0-0.1 0.1-0.2 0-0.2 0.1-0.3 0.1-0.1 0.3-0.3 0.1-0.1 0.2-0.2 0.2-0.2 0.3-0.3 0.2-0.1 0.3-0.3zm0.8 3.5q0.1 0 0.2 0 0.1 0 0.3 0 0.1-0.1 0.2-0.1 0.1 0 0.2-0.1 0.1 0 0.2-0.1 0.1 0 0.2-0.1 0.1 0 0.1-0.1 0.1-0.1 0.2-0.2l-2-2.3-0.1-0.1-0.2 0.2q-0.2 0.2-0.4 0.3-0.1 0.2-0.3 0.4-0.1 0.2-0.2 0.4-0.1 0.2-0.1 0.4 0 0.2 0 0.3 0 0.1 0.1 0.3 0 0.1 0.1 0.2 0.1 0.1 0.2 0.2 0.1 0.1 0.3 0.2 0.1 0.1 0.3 0.1 0.2 0.1 0.4 0.1 0.1 0 0.3 0zm-1-5.2q0 0.2 0.1 0.4 0 0.2 0.1 0.4 0.1 0.2 0.2 0.3 0.1 0.2 0.3 0.3l0.6-0.5q0.1 0 0.2-0.1 0 0 0.1-0.1 0.1 0 0.1-0.1 0.1-0.1 0.1-0.2 0 0 0.1-0.1 0-0.1 0-0.2 0.1 0 0.1-0.1 0-0.1 0-0.2 0-0.1 0-0.1 0-0.1-0.1-0.2 0-0.1-0.1-0.2 0 0-0.1-0.1-0.1 0-0.1-0.1-0.1-0.1-0.2-0.1-0.1 0-0.2-0.1-0.1 0-0.2 0-0.1 0-0.2 0-0.1 0.1-0.2 0.1-0.1 0-0.2 0.1-0.1 0.1-0.2 0.1-0.1 0.1-0.1 0.2-0.1 0.1-0.1 0.2 0 0.1 0 0.2 0 0.1 0 0.2z"/>
				<path id="패스_603" class="s0" d="m95 7.2h-3.3v2.9h3.8v0.5h-4.4v-7.1h4.4v0.5h-3.8v2.7h3.3z"/>
				<path id="패스_604" class="s0" d="m98.3 7.5l1.4-2.1h0.7l-1.8 2.6 1.9 2.6h-0.7l-1.5-2.2-1.5 2.2h-0.7l1.9-2.7-1.8-2.6h0.7z"/>
				<path id="패스_605" fill-rule="evenodd" class="s0" d="m105.7 8q0 0.3 0 0.5-0.1 0.3-0.1 0.6-0.1 0.2-0.2 0.5-0.1 0.2-0.2 0.4-0.1 0.2-0.3 0.3-0.2 0.2-0.4 0.3-0.2 0.1-0.4 0.1-0.2 0-0.4 0-0.2 0-0.5 0-0.2-0.1-0.4-0.2-0.3-0.1-0.5-0.2-0.1-0.2-0.3-0.4v2.7h-0.6v-7.3h0.5v0.7q0.1-0.2 0.3-0.3 0.2-0.2 0.4-0.3 0.3-0.1 0.5-0.2 0.3 0 0.5 0 0.2 0 0.4 0.1 0.2 0 0.4 0.1 0.2 0.1 0.4 0.2 0.2 0.2 0.3 0.3 0.2 0.3 0.3 0.5 0.1 0.3 0.2 0.5 0.1 0.3 0.1 0.6 0 0.3 0 0.5zm-0.6-0.1q0-0.2 0-0.4 0-0.2-0.1-0.4 0-0.2-0.1-0.4-0.1-0.2-0.2-0.4-0.1-0.1-0.2-0.2-0.2-0.1-0.3-0.2-0.2-0.1-0.4-0.1-0.1-0.1-0.3-0.1-0.1 0-0.2 0-0.2 0-0.3 0.1-0.1 0-0.2 0.1-0.1 0-0.2 0.1-0.1 0.1-0.2 0.2-0.1 0.1-0.2 0.2 0 0.1-0.1 0.2-0.1 0.1-0.1 0.2v2.5q0 0.1 0.1 0.2 0.1 0.1 0.1 0.2 0.1 0.1 0.2 0.2 0.1 0.1 0.2 0.1 0.1 0.1 0.2 0.1 0.1 0.1 0.2 0.1 0.1 0 0.3 0 0.1 0 0.2 0 0.2 0 0.3 0 0.2 0 0.3-0.1 0.2-0.1 0.3-0.2 0.1-0.1 0.2-0.3 0.1-0.1 0.3-0.3 0.1-0.2 0.1-0.5 0.1-0.2 0.1-0.4 0-0.2 0-0.5z"/>
				<path id="패스_606" fill-rule="evenodd" class="s0" d="m109.1 10.7q-0.2 0-0.3 0-0.2 0-0.3 0-0.2-0.1-0.3-0.1-0.2-0.1-0.3-0.2-0.1-0.1-0.2-0.2-0.2-0.1-0.3-0.2-0.1-0.1-0.1-0.2-0.1-0.1-0.2-0.3-0.1-0.1-0.1-0.3-0.1-0.1-0.1-0.3-0.1-0.2-0.1-0.3 0-0.2 0-0.4v-0.3q0-0.2 0-0.3 0-0.2 0.1-0.4 0-0.2 0.1-0.3 0-0.2 0.1-0.4 0.1-0.1 0.2-0.2 0.1-0.2 0.2-0.3 0.1-0.1 0.2-0.2 0.1-0.2 0.2-0.3 0.1 0 0.3-0.1 0.1-0.1 0.2-0.1 0.2 0 0.3 0 0.2-0.1 0.3-0.1 0.2 0 0.4 0.1 0.2 0 0.4 0.1 0.2 0.1 0.4 0.2 0.2 0.2 0.3 0.3 0.2 0.2 0.3 0.4 0.1 0.2 0.2 0.5 0.1 0.2 0.1 0.4 0 0.3 0 0.5v0.3h-3.8v0.1q0 0.2 0 0.4 0.1 0.2 0.1 0.4 0.1 0.2 0.2 0.4 0.1 0.2 0.2 0.3 0.1 0.2 0.3 0.3 0.1 0.1 0.3 0.2 0.1 0.1 0.3 0.1 0.2 0 0.4 0 0.1 0 0.2 0 0.1 0 0.2 0 0.1-0.1 0.2-0.1 0.1 0 0.2-0.1 0.1 0 0.2-0.1 0.1 0 0.2-0.1 0.1-0.1 0.1-0.1 0.1-0.1 0.2-0.2l0.4 0.3q-0.2 0.2-0.4 0.4-0.2 0.2-0.4 0.3-0.3 0.1-0.6 0.2-0.2 0-0.5 0zm-0.2-5q-0.2 0-0.3 0.1-0.2 0-0.3 0.1-0.1 0-0.3 0.1-0.1 0.1-0.2 0.2-0.1 0.2-0.2 0.3-0.1 0.2-0.2 0.3 0 0.2-0.1 0.4 0 0.2 0 0.3h3.2v-0.1q0-0.1 0-0.3-0.1-0.1-0.1-0.3-0.1-0.2-0.1-0.3-0.1-0.1-0.2-0.3-0.1-0.1-0.2-0.2-0.2-0.1-0.3-0.2-0.2 0-0.4-0.1-0.1 0-0.3 0z"/>
				<path id="패스_607" class="s0" d="m114.6 5.8h-0.4q-0.1 0-0.2 0-0.2 0-0.3 0.1-0.1 0-0.2 0.1-0.1 0-0.2 0.1-0.1 0.1-0.2 0.2-0.1 0.1-0.1 0.2-0.1 0.1-0.1 0.3-0.1 0.1-0.1 0.2v3.6h-0.6v-5.3h0.6v0.8q0.1-0.2 0.3-0.4 0.1-0.1 0.3-0.3 0.2-0.1 0.4-0.1 0.3-0.1 0.5-0.1c0.2 0 0.3 0 0.4 0.1z"/>
				<path id="패스_608" class="s0" d="m115.5 3.8q0-0.1 0.1-0.3 0.1-0.1 0.3-0.1 0.2 0 0.3 0.1 0.1 0.2 0.1 0.3 0 0.2-0.1 0.3-0.1 0.1-0.3 0.1-0.2 0-0.3-0.1-0.1-0.1-0.1-0.3zm0.7 6.8h-0.6v-5.3h0.6z"/>
				<path id="패스_609" fill-rule="evenodd" class="s0" d="m119.8 10.7q-0.2 0-0.3 0-0.2 0-0.3 0-0.2-0.1-0.3-0.1-0.2-0.1-0.3-0.2-0.1 0-0.3-0.1-0.1-0.1-0.2-0.3-0.1-0.1-0.2-0.2 0-0.1-0.1-0.3-0.1-0.1-0.1-0.3-0.1-0.1-0.1-0.3-0.1-0.2-0.1-0.3 0-0.2 0-0.4v-0.3q0-0.2 0-0.3 0-0.2 0.1-0.4 0-0.2 0.1-0.3 0-0.2 0.1-0.4 0.1-0.1 0.2-0.2 0.1-0.2 0.2-0.3 0.1-0.1 0.2-0.2 0.1-0.2 0.2-0.3 0.1 0 0.3-0.1 0.1-0.1 0.2-0.1 0.2 0 0.3 0 0.2-0.1 0.3-0.1 0.2 0 0.4 0.1 0.2 0 0.4 0.1 0.2 0.1 0.4 0.2 0.2 0.2 0.3 0.3 0.2 0.2 0.3 0.4 0.1 0.2 0.2 0.5 0.1 0.2 0.1 0.4 0 0.3 0 0.5v0.3h-3.8v0.1q0 0.2 0 0.4 0.1 0.2 0.1 0.4 0.1 0.2 0.2 0.4 0.1 0.2 0.2 0.3 0.1 0.2 0.3 0.3 0.1 0.1 0.3 0.2 0.1 0.1 0.3 0.1 0.2 0 0.4 0 0.1 0 0.2 0 0.1 0 0.2 0 0.1-0.1 0.2-0.1 0.1 0 0.2-0.1 0.1 0 0.2-0.1 0.1 0 0.2-0.1 0.1-0.1 0.1-0.1 0.1-0.1 0.2-0.2l0.4 0.3q-0.2 0.3-0.4 0.4-0.2 0.2-0.4 0.3-0.3 0.1-0.6 0.2-0.2 0-0.5 0zm-0.1-5q-0.2 0-0.3 0.1-0.2 0-0.3 0.1-0.1 0-0.3 0.1-0.1 0.1-0.2 0.2-0.1 0.2-0.2 0.3-0.1 0.2-0.2 0.3 0 0.2-0.1 0.4 0 0.2 0 0.3h3.2v-0.1q0-0.1 0-0.3-0.1-0.1-0.1-0.3-0.1-0.2-0.1-0.3-0.1-0.1-0.2-0.3-0.1-0.1-0.2-0.2-0.2-0.1-0.3-0.2-0.2 0-0.4-0.1-0.1 0-0.3 0z"/>
				<path id="패스_610" class="s0" d="m123.5 5.3v0.9q0.1-0.1 0.1-0.2 0.1-0.1 0.2-0.2 0.1-0.1 0.2-0.1 0.1-0.1 0.2-0.2 0.1 0 0.2-0.1 0.1-0.1 0.3-0.1 0.1 0 0.2-0.1 0.2 0 0.3 0 0.2 0 0.4 0 0.1 0.1 0.3 0.1 0.2 0.1 0.3 0.2 0.2 0.1 0.3 0.2 0.1 0.2 0.2 0.3 0.1 0.2 0.1 0.4 0.1 0.2 0.1 0.4 0 0.1 0 0.3v3.5h-0.6v-3.5q0-0.1 0-0.3 0-0.1-0.1-0.2 0-0.2-0.1-0.3 0-0.2-0.1-0.3-0.1-0.1-0.2-0.1-0.1-0.1-0.2-0.1-0.1-0.1-0.3-0.1-0.1 0-0.2 0-0.1 0-0.3 0-0.1 0.1-0.2 0.1-0.2 0-0.3 0.1-0.1 0.1-0.2 0.1-0.1 0.1-0.2 0.2-0.1 0.1-0.2 0.2-0.1 0.1-0.1 0.3-0.1 0.1-0.1 0.2v3.7h-0.6v-5.3z"/>
				<path id="패스_611" class="s0" d="m130.4 10.2q0.1 0 0.3 0 0.1 0 0.2 0 0.2-0.1 0.3-0.1 0.1-0.1 0.2-0.2 0.1 0 0.2-0.1 0.1-0.1 0.1-0.3 0.1-0.1 0.1-0.2 0-0.1 0-0.3h0.6q0 0.1 0 0.3 0 0.1-0.1 0.2 0 0.1-0.1 0.2 0 0.1-0.1 0.2-0.1 0.1-0.1 0.2-0.1 0.1-0.2 0.2-0.1 0.1-0.2 0.1-0.1 0.1-0.2 0.1-0.1 0.1-0.2 0.1-0.2 0-0.3 0.1-0.1 0-0.2 0-0.2 0-0.3 0-0.2 0-0.5 0-0.2 0-0.4-0.1-0.2-0.1-0.4-0.3-0.2-0.1-0.3-0.3-0.2-0.2-0.3-0.4-0.1-0.2-0.2-0.5 0-0.2-0.1-0.5 0-0.2 0-0.5v-0.2q0-0.2 0-0.3 0-0.2 0.1-0.4 0-0.2 0.1-0.3 0-0.2 0.1-0.4 0.1-0.1 0.1-0.2 0.1-0.2 0.2-0.3 0.1-0.1 0.2-0.2 0.2-0.1 0.3-0.2 0.1-0.1 0.3-0.1 0.1-0.1 0.3-0.1 0.1 0 0.3-0.1 0.1 0 0.3 0 0.2 0 0.4 0 0.2 0.1 0.3 0.1 0.2 0.1 0.4 0.2 0.2 0.1 0.3 0.2 0.1 0.2 0.2 0.3 0.2 0.2 0.2 0.4 0.1 0.2 0.2 0.3 0 0.2 0 0.4h-0.6q0-0.1 0-0.2-0.1-0.2-0.1-0.3-0.1-0.1-0.1-0.2-0.1-0.2-0.2-0.3-0.1-0.1-0.2-0.2-0.1 0-0.3-0.1-0.1 0-0.2-0.1-0.2 0-0.3 0-0.2 0-0.3 0.1-0.2 0-0.4 0.1-0.1 0.1-0.3 0.2-0.1 0.1-0.2 0.2-0.1 0.2-0.2 0.4-0.1 0.2-0.1 0.4-0.1 0.2-0.1 0.4 0 0.2 0 0.4v0.2q0 0.2 0 0.4 0 0.3 0.1 0.5 0 0.2 0.1 0.4 0.1 0.2 0.2 0.3 0.1 0.1 0.2 0.2 0.2 0.1 0.3 0.1 0.1 0.1 0.3 0.1 0.1 0 0.3 0z"/>
				<path id="패스_612" fill-rule="evenodd" class="s0" d="m135.6 10.7q-0.2 0-0.3 0-0.2 0-0.3 0-0.2-0.1-0.3-0.1-0.2-0.1-0.3-0.2-0.1 0-0.3-0.1-0.1-0.1-0.2-0.3-0.1-0.1-0.2-0.2 0-0.1-0.1-0.3-0.1-0.1-0.1-0.3-0.1-0.1-0.1-0.3-0.1-0.2-0.1-0.3 0-0.2 0-0.4v-0.3q0-0.2 0-0.3 0-0.2 0.1-0.4 0-0.2 0.1-0.3 0-0.2 0.1-0.4 0.1-0.1 0.2-0.2 0.1-0.2 0.2-0.3 0.1-0.1 0.2-0.2 0.1-0.2 0.2-0.3 0.1 0 0.3-0.1 0.1-0.1 0.2-0.1 0.2 0 0.3 0 0.2-0.1 0.3-0.1 0.2 0 0.4 0.1 0.2 0 0.4 0.1 0.2 0.1 0.4 0.2 0.2 0.2 0.3 0.3 0.2 0.2 0.3 0.4 0.1 0.2 0.2 0.5 0.1 0.2 0.1 0.4 0 0.3 0 0.5v0.3h-3.8v0.1q0 0.2 0 0.4 0.1 0.2 0.1 0.4 0.1 0.2 0.2 0.4 0.1 0.2 0.2 0.3 0.1 0.2 0.3 0.3 0.1 0.1 0.3 0.2 0.1 0.1 0.3 0.1 0.2 0 0.4 0 0.1 0 0.2 0 0.1 0 0.2 0 0.1-0.1 0.2-0.1 0.1 0 0.2-0.1 0.1 0 0.2-0.1 0.1 0 0.2-0.1 0.1-0.1 0.1-0.1 0.1-0.1 0.2-0.2l0.4 0.3q-0.2 0.3-0.4 0.4-0.2 0.2-0.4 0.3-0.3 0.2-0.6 0.2-0.2 0.1-0.5 0zm-0.1-5q-0.2 0-0.3 0.1-0.2 0-0.3 0.1-0.1 0-0.3 0.1-0.1 0.1-0.2 0.2-0.1 0.2-0.2 0.3-0.1 0.2-0.2 0.3 0 0.2-0.1 0.4 0 0.2 0 0.3h3.2v-0.1q0-0.1 0-0.3-0.1-0.1-0.1-0.3-0.1-0.2-0.1-0.3-0.1-0.1-0.2-0.3-0.1-0.1-0.2-0.2-0.2-0.1-0.3-0.2-0.2 0-0.4-0.1-0.1 0-0.3 0z"/>
			</g>
			<g id="그룹_461">
				<g id="그룹_460">
					<g id="그룹_674">
						<path id="패스_550_1_" class="s1" d="m39.7 36.9l-18.1 8.6q-0.7 0.4-1.5 0.5-0.8 0.2-1.6 0.2-0.8 0-1.6-0.3-0.8-0.2-1.5-0.6l-9.7-5.4q-0.8-0.4-1.5-1-0.6-0.6-1.1-1.4-0.4-0.7-0.7-1.6-0.2-0.9-0.2-1.8v-19.8q0-0.9 0.2-1.8 0.3-0.8 0.7-1.6 0.5-0.8 1.1-1.4 0.7-0.6 1.5-1.1l9.7-5.4q0.7-0.4 1.5-0.6 0.8-0.2 1.6-0.2 0.8 0 1.6 0.1 0.8 0.2 1.5 0.5l18.1 8.6q0.9 0.4 1.6 1.1 0.7 0.6 1.2 1.4 0.6 0.8 0.8 1.7 0.3 1 0.3 1.9v13.2q0 1-0.3 1.9-0.3 1-0.8 1.8-0.5 0.8-1.2 1.4-0.7 0.7-1.6 1.1z"/>
						<path id="패스_613" fill-rule="evenodd" class="s2" d="m18.6 48.3q-0.6 0-1.1 0-0.6-0.1-1.1-0.3-0.6-0.1-1.1-0.3-0.5-0.2-1-0.5l-9.7-5.4q-1.1-0.5-1.9-1.3-0.9-0.9-1.5-1.9-0.6-1-0.9-2.1-0.3-1.2-0.3-2.4v-19.8q0-1.2 0.3-2.3 0.3-1.2 0.9-2.2 0.6-1 1.5-1.9 0.8-0.8 1.9-1.4l9.7-5.4q0.9-0.5 1.9-0.8 1.1-0.3 2.1-0.3 1.1 0 2.1 0.2 1 0.2 2 0.6l18.1 8.6q1.1 0.6 2.1 1.4 0.9 0.8 1.6 1.9 0.7 1.1 1 2.3 0.4 1.2 0.4 2.4v13.2q0 1.3-0.4 2.5-0.3 1.2-1 2.3-0.7 1.1-1.6 1.9-1 0.9-2.1 1.4l-18.1 8.6q-0.4 0.3-0.9 0.5-0.4 0.2-0.9 0.3-0.5 0.1-1 0.2-0.5 0-1 0zm0-44q-0.3 0-0.6 0.1-0.3 0-0.5 0.1-0.3 0.1-0.6 0.2-0.3 0.1-0.5 0.2l-9.7 5.4q-0.5 0.3-1 0.7-0.4 0.5-0.8 1-0.3 0.5-0.4 1.1-0.2 0.6-0.2 1.2v19.8q0 0.6 0.1 1.2 0.2 0.6 0.5 1.1 0.3 0.5 0.7 0.9 0.5 0.5 1 0.7l9.8 5.4q0.5 0.3 1 0.4 0.6 0.2 1.1 0.2 0.6 0 1.1-0.1 0.6-0.1 1.1-0.4l18.1-8.6q0.6-0.3 1.1-0.7 0.5-0.5 0.9-1.1 0.3-0.6 0.5-1.2 0.2-0.7 0.2-1.4v-13.1q0-0.6-0.2-1.3-0.2-0.6-0.5-1.2-0.4-0.5-0.9-1-0.5-0.4-1.1-0.7l-18.1-8.5q-0.2-0.1-0.5-0.1-0.3-0.1-0.5-0.2-0.3 0-0.6-0.1-0.2 0-0.5 0z"/>
					</g>
					<path id="패스_614" class="s2" d="m31.3 21.1q-0.1 0-0.2 0-0.1 0-0.3 0-0.1-0.1-0.2-0.1-0.1 0-0.2-0.1l-12.1-5.7-7.1 3.6q-0.4 0.2-0.8 0.2-0.4 0.1-0.8-0.1-0.4-0.1-0.8-0.3-0.3-0.3-0.5-0.7-0.2-0.4-0.2-0.8 0-0.4 0.1-0.8 0.1-0.4 0.4-0.7 0.2-0.4 0.6-0.6l9-4.6 14 6.7q0.4 0.2 0.7 0.5 0.2 0.3 0.4 0.7 0.1 0.4 0.1 0.8 0 0.5-0.2 0.8-0.1 0.3-0.3 0.5-0.2 0.3-0.5 0.4-0.2 0.2-0.5 0.3-0.3 0-0.6 0z"/>
					<path id="패스_615" class="s2" d="m18.3 36.7q-0.4 0-0.8-0.1-0.4-0.2-0.7-0.5-0.3-0.3-0.4-0.7-0.2-0.4-0.2-0.8v-20.2q0-0.4 0.2-0.8 0.1-0.4 0.4-0.7 0.3-0.2 0.7-0.4 0.4-0.2 0.8-0.2 0.4 0 0.8 0.2 0.4 0.2 0.7 0.5 0.3 0.3 0.4 0.6 0.2 0.4 0.2 0.8v20.2q0 0.5-0.1 0.8-0.2 0.4-0.5 0.7-0.3 0.3-0.7 0.5-0.4 0.1-0.8 0.1z"/>
				</g>
				<g id="그룹_675">
					<path id="패스_616" class="s2" d="m61.3 33.9h-3.9v-11.8h-3v-3.5h10v3.5h-3z"/>
					<path id="패스_617" fill-rule="evenodd" class="s2" d="m65.8 33.9v-15.3h4.9q0.4 0 0.8 0 0.3 0.1 0.7 0.1 0.4 0 0.8 0 0.3 0.1 0.7 0.1 0.2 0.1 0.5 0.2 0.2 0 0.5 0.2 0.2 0.1 0.4 0.2 0.2 0.2 0.4 0.3 0.5 0.4 0.8 0.9 0.4 0.4 0.7 1 0.2 0.5 0.3 1.1 0.1 0.6 0.1 1.2 0 0.5 0 0.9-0.1 0.4-0.2 0.8-0.1 0.4-0.3 0.8-0.2 0.4-0.5 0.7-0.3 0.4-0.6 0.6-0.3 0.3-0.6 0.5-0.4 0.2-0.8 0.3-0.4 0.2-0.8 0.2l4.2 5.2h-4.5l-3.6-5v5zm3.7-7.6h1.4c1.7 0 2.6-0.7 2.6-2.2 0-1.4-0.8-2.1-2.5-2.1h-1.5z"/>
					<path id="패스_618" fill-rule="evenodd" class="s2" d="m89.5 33.9l-0.7-2.2h-5.3l-0.8 2.2h-4.2l6.1-15.3h3.1l6.1 15.3zm-3.4-10.5l-1.6 5.2h3.2z"/>
					<path id="패스_619" class="s2" d="m97.6 33.9l-5.1-15.3h4l3.1 10.8 3.1-10.8h4l-5.2 15.3z"/>
					<path id="패스_620" class="s2" d="m116.4 33.9h-8.5v-15.3h8.5v3.5h-4.8v2.3h4.6v3.5h-4.6v2.6h4.8z"/>
					<path id="패스_621" class="s2" d="m127.1 33.9h-8.4v-15.3h3.9v11.9h4.5z"/>
					<path id="패스_622" class="s2" d="m142.9 33.9h-8.4v-15.3h3.9v11.9h4.5z"/>
					<path id="패스_623" class="s2" d="m153.1 33.9h-8.5v-15.3h8.5v3.5h-4.8v2.3h4.6v3.5h-4.6v2.6h4.8z"/>
					<path id="패스_624" fill-rule="evenodd" class="s2" d="m165 33.9l-0.7-2.2h-5.3l-0.8 2.2h-4.2l6.1-15.3h3.1l6.1 15.3zm-3.3-10.5l-1.6 5.2h3.2z"/>
					<path id="패스_625" fill-rule="evenodd" class="s2" d="m170.6 33.9v-15.3h4.9q0.4 0 0.8 0 0.3 0.1 0.7 0.1 0.4 0 0.8 0 0.3 0.1 0.7 0.1 0.2 0.1 0.5 0.2 0.2 0 0.5 0.2 0.2 0.1 0.4 0.2 0.2 0.2 0.4 0.3 0.5 0.4 0.8 0.9 0.4 0.4 0.7 1 0.2 0.5 0.3 1.1 0.1 0.6 0.1 1.2 0 0.5 0 0.9-0.1 0.4-0.2 0.8-0.1 0.4-0.3 0.8-0.2 0.4-0.5 0.7-0.3 0.4-0.6 0.6-0.3 0.3-0.6 0.5-0.4 0.2-0.8 0.3-0.4 0.2-0.8 0.2l4.2 5.2h-4.5l-3.6-5v5zm3.7-7.6h1.4c1.7 0 2.6-0.7 2.6-2.2 0-1.4-0.8-2.1-2.5-2.1h-1.5z"/>
					<path id="패스_626" class="s2" d="m187.7 33.9h-3.7v-15.3h3.4l6 9.7-0.2-9.7h3.7v15.3h-3.4l-5.9-9.3z"/>
					<path id="패스_627" class="s2" d="m208 33.9h-8.5v-15.3h8.5v3.5h-4.8v2.3h4.6v3.5h-4.6v2.6h4.8z"/>
					<path id="패스_628" fill-rule="evenodd" class="s2" d="m210.4 33.9v-15.3h4.9q0.4 0 0.8 0 0.3 0.1 0.7 0.1 0.4 0 0.8 0 0.3 0.1 0.7 0.1 0.2 0.1 0.5 0.2 0.2 0 0.5 0.2 0.2 0.1 0.4 0.2 0.2 0.2 0.4 0.3 0.5 0.4 0.8 0.9 0.4 0.4 0.7 1 0.2 0.5 0.3 1.1 0.1 0.6 0.1 1.2 0 0.5 0 0.9-0.1 0.4-0.2 0.8-0.1 0.4-0.3 0.8-0.2 0.4-0.5 0.7-0.3 0.4-0.6 0.6-0.3 0.3-0.6 0.5-0.4 0.2-0.8 0.3-0.4 0.2-0.8 0.2l4.2 5.2h-4.5l-3.6-5v5zm3.7-7.6h1.4c1.7 0 2.6-0.7 2.6-2.2 0-1.4-0.8-2.1-2.5-2.1h-1.5z"/>
				</g>
			</g>
		</g>
	</g>
</svg>